<svg width="320" height="320" viewBox="0 0 320 320" xmlns="http://www.w3.org/2000/svg" role="img" aria-label="UMADIGI STORE logo">
  <defs>
    <linearGradient id="g" x1="48" y1="40" x2="276" y2="280" gradientUnits="userSpaceOnUse">
      <stop stop-color="#ee4d2d"/>
      <stop offset="0.52" stop-color="#ff8a3d"/>
      <stop offset="1" stop-color="#0f766e"/>
    </linearGradient>
    <filter id="s" x="-20%" y="-20%" width="140%" height="140%">
      <feDropShadow dx="0" dy="18" stdDeviation="18" flood-color="#111827" flood-opacity="0.24"/>
    </filter>
  </defs>
  <rect width="320" height="320" rx="72" fill="#fff7ed"/>
  <rect x="34" y="34" width="252" height="252" rx="58" fill="url(#g)" filter="url(#s)"/>
  <path d="M96 98h48v82c0 23 13 37 36 37s36-14 36-37V98h48v85c0 52-32 86-84 86s-84-34-84-86V98Z" fill="#fff"/>
  <path d="M75 74h170v28H75V74Zm0 144h170v28H75v-28Z" fill="#fff" opacity=".28"/>
  <circle cx="248" cy="78" r="22" fill="#111827"/>
  <text x="248" y="86" text-anchor="middle" font-family="Arial, Helvetica, sans-serif" font-size="20" font-weight="900" fill="#fff">D</text>
</svg>
